<svg width="53" height="53" viewBox="0 0 53 53" fill="none" xmlns="http://www.w3.org/2000/svg">
<rect x="0.00268555" y="0.530334" width="52" height="52" rx="4" fill="#03258C" fill-opacity="0.08"/>
<rect x="0.502686" y="1.03033" width="51" height="51" rx="3.5" stroke="#03258C" stroke-opacity="0.4"/>
<path d="M26.0019 21.1606C26.727 21.1606 27.3149 20.5727 27.3149 19.8476C27.3149 19.1224 26.727 18.5346 26.0019 18.5346C25.2768 18.5346 24.6889 19.1224 24.6889 19.8476C24.6889 20.5727 25.2768 21.1606 26.0019 21.1606Z" fill="url(#paint0_linear_54_514)"/>
<path d="M37.045 15.2016L27.0124 10.7576C26.3728 10.4546 25.6321 10.4546 24.9588 10.7576L14.9598 15.2016C14.0508 15.6056 13.4448 16.5146 13.4448 17.5245V19.3425C13.4448 27.5908 16.9798 35.4015 23.1408 40.8554L24.3191 41.8991C25.2618 42.7407 26.7094 42.7407 27.6521 41.8991L28.8304 40.8554C35.0251 35.4015 38.56 27.5572 38.56 19.3089V17.4909C38.56 16.5146 37.9877 15.6056 37.045 15.2016ZM27.7531 25.6718V34.4925C27.7531 34.5598 27.7194 34.6271 27.6858 34.6945L26.2381 36.2431C26.1371 36.3778 25.9351 36.3778 25.8004 36.2431L24.3191 34.6945C24.2518 34.6271 24.2518 34.5598 24.2518 34.4925V33.2805C24.2518 33.2131 24.2854 33.1121 24.3528 33.0785L25.2281 32.2031C25.3291 32.1021 25.3291 31.9001 25.2281 31.7991L24.3528 30.9238C24.2854 30.8565 24.2518 30.7891 24.2518 30.7218V29.8802C24.2518 29.8128 24.2854 29.7118 24.3528 29.6782L25.2281 28.8028C25.3291 28.7018 25.3291 28.4998 25.2281 28.3988L24.3528 27.5235C24.2854 27.4562 24.2518 27.3888 24.2518 27.3215V25.6718C22.5684 24.9648 21.3565 23.3152 21.3565 21.3962C21.3565 18.8375 23.4438 16.7839 25.9688 16.7839C28.4937 16.7839 30.5811 18.8712 30.5811 21.3962C30.6147 23.3152 29.4364 24.9648 27.7531 25.6718Z" fill="url(#paint1_linear_54_514)"/>
<defs>
<linearGradient id="paint0_linear_54_514" x1="26.0024" y1="10.5303" x2="26.0024" y2="48.8459" gradientUnits="userSpaceOnUse">
<stop stop-color="#03258C"/>
<stop offset="1" stop-color="#03258C" stop-opacity="0"/>
</linearGradient>
<linearGradient id="paint1_linear_54_514" x1="26.0024" y1="10.5303" x2="26.0024" y2="48.8459" gradientUnits="userSpaceOnUse">
<stop stop-color="#03258C"/>
<stop offset="1" stop-color="#03258C" stop-opacity="0"/>
</linearGradient>
</defs>
</svg>
