<svg width="35" height="36" viewBox="0 0 35 36" fill="none" xmlns="http://www.w3.org/2000/svg">
<rect y="0.5" width="35" height="35" rx="8" fill="#0433BF"/>
<path d="M17.4997 14.8117C17.9303 14.8117 18.2793 14.4627 18.2793 14.0321C18.2793 13.6016 17.9303 13.2525 17.4997 13.2525C17.0692 13.2525 16.7201 13.6016 16.7201 14.0321C16.7201 14.4627 17.0692 14.8117 17.4997 14.8117Z" fill="white"/>
<path d="M24.0566 11.2735L18.0997 8.63493C17.7199 8.45502 17.2801 8.45502 16.8803 8.63493L10.9435 11.2735C10.4038 11.5134 10.0439 12.0531 10.0439 12.6528V13.7322C10.0439 18.6297 12.1428 23.2672 15.8009 26.5055L16.5005 27.1252C17.0603 27.6249 17.9198 27.6249 18.4795 27.1252L19.1791 26.5055C22.8572 23.2672 24.9561 18.6097 24.9561 13.7123V12.6328C24.9561 12.0531 24.6163 11.5134 24.0566 11.2735ZM18.5395 17.4903V22.7275C18.5395 22.7675 18.5195 22.8075 18.4995 22.8474L17.6399 23.767C17.58 23.8469 17.46 23.8469 17.3801 23.767L16.5005 22.8474C16.4606 22.8075 16.4606 22.7675 16.4606 22.7275V22.0079C16.4606 21.9679 16.4806 21.9079 16.5205 21.888L17.0403 21.3682C17.1002 21.3083 17.1002 21.1883 17.0403 21.1284L16.5205 20.6086C16.4806 20.5687 16.4606 20.5287 16.4606 20.4887V19.989C16.4606 19.949 16.4806 19.889 16.5205 19.869L17.0403 19.3493C17.1002 19.2893 17.1002 19.1694 17.0403 19.1094L16.5205 18.5897C16.4806 18.5497 16.4606 18.5097 16.4606 18.4698V17.4903C15.4611 17.0705 14.7415 16.091 14.7415 14.9516C14.7415 13.4324 15.9808 12.213 17.48 12.213C18.9792 12.213 20.2186 13.4524 20.2186 14.9516C20.2386 16.091 19.539 17.0705 18.5395 17.4903Z" fill="white"/>
</svg>
