<svg width="123" height="34" viewBox="0 0 123 34" fill="none" xmlns="http://www.w3.org/2000/svg">
<path d="M43.9841 13.2198C44.4199 12.7902 44.933 12.4594 45.5234 12.2245C46.1137 11.9896 46.769 11.8752 47.483 11.8752C48.197 11.8752 48.8615 12.0082 49.4704 12.274C50.0824 12.5398 50.6326 12.9385 51.1272 13.4732L52.7654 11.934C52.1286 11.1798 51.3497 10.6111 50.4255 10.2278C49.5014 9.84452 48.4814 9.65289 47.3655 9.65289C46.3115 9.65289 45.3441 9.82598 44.4601 10.1691C43.5761 10.5152 42.8034 11.0005 42.1419 11.6311C41.4805 12.2616 40.9643 13.0065 40.6026 13.8627C40.2379 14.722 40.0555 15.6554 40.0555 16.6692C40.0555 17.6831 40.2379 18.6196 40.6026 19.4758C40.9674 20.332 41.4774 21.0769 42.1326 21.7074C42.7879 22.338 43.5606 22.8263 44.4508 23.1694C45.341 23.5156 46.3054 23.6856 47.347 23.6856C48.4783 23.6856 49.5045 23.4909 50.4255 23.1014C51.3497 22.712 52.1286 22.1463 52.7654 21.4045L51.1272 19.8467C50.6326 20.3938 50.0824 20.7987 49.4704 21.0645C48.8584 21.3303 48.197 21.4633 47.483 21.4633C46.769 21.4633 46.1137 21.3458 45.5234 21.114C44.933 20.8791 44.4199 20.5483 43.9841 20.1187C43.5483 19.6891 43.2114 19.1822 42.9703 18.598C42.7292 18.0138 42.6086 17.3709 42.6086 16.6692C42.6086 15.9676 42.7292 15.3247 42.9703 14.7405C43.2114 14.1563 43.5483 13.6494 43.9841 13.2198Z" fill="white"/>
<path d="M61.3212 13.6279C60.5299 13.1859 59.6243 12.9664 58.6105 12.9664C57.5966 12.9664 56.6446 13.1951 55.8317 13.6495C55.0188 14.1039 54.3821 14.7313 53.9216 15.5319C53.461 16.3324 53.2292 17.2504 53.2292 18.289C53.2292 19.3275 53.4672 20.2331 53.9401 21.0368C54.413 21.8435 55.0837 22.4771 55.9492 22.9377C56.8116 23.3982 57.8223 23.63 58.9814 23.63C59.8901 23.63 60.6999 23.4848 61.4077 23.1911C62.1156 22.8975 62.7028 22.4802 63.1726 21.9331L61.8652 20.431C61.5005 20.8204 61.0863 21.1079 60.6165 21.2902C60.1497 21.4726 59.6212 21.5622 59.037 21.5622C58.3601 21.5622 57.7636 21.4324 57.2443 21.1728C56.725 20.9131 56.3201 20.5422 56.0357 20.0601C55.8565 19.7571 55.739 19.4233 55.6741 19.0679H63.8341C63.8465 18.9504 63.8557 18.8268 63.8619 18.697C63.8681 18.5671 63.8712 18.4497 63.8712 18.3477C63.8712 17.2566 63.6425 16.3077 63.1881 15.501C62.7337 14.6942 62.1094 14.073 61.3181 13.631L61.3212 13.6279ZM55.9894 16.385C56.2428 15.9244 56.5952 15.5628 57.0434 15.3031C57.4915 15.0435 58.0139 14.9137 58.6136 14.9137C59.2132 14.9137 59.7139 15.0435 60.1621 15.3031C60.6103 15.5628 60.9657 15.9213 61.2254 16.3757C61.4077 16.6971 61.5221 17.0557 61.5685 17.4482H55.6556C55.7112 17.0557 55.8194 16.7002 55.9925 16.385H55.9894Z" fill="white"/>
<path d="M68.0468 14.6076V13.0837H65.7286V23.4939H68.1643V18.4465C68.1643 17.3801 68.4363 16.5796 68.9834 16.0387C69.5305 15.4977 70.263 15.2288 71.1872 15.2288C71.2768 15.2288 71.3695 15.2288 71.4592 15.2381C71.5488 15.2443 71.6477 15.2597 71.7528 15.2876V12.9694C70.7514 12.9694 69.9168 13.1517 69.2492 13.5165C68.7485 13.7885 68.3497 14.1532 68.0499 14.6137L68.0468 14.6076Z" fill="white"/>
<path d="M77.9317 21.6209C77.4773 21.6209 77.1219 21.4849 76.8684 21.2129C76.6149 20.9409 76.4882 20.5576 76.4882 20.063V15.1114H79.2762V13.161H76.4882V10.7841H74.0526V13.161H72.3371V15.1114H74.0526V20.1218C74.0526 21.2778 74.3648 22.1525 74.9891 22.7429C75.6135 23.3332 76.4975 23.63 77.6411 23.63C78.0831 23.63 78.5128 23.5712 78.9269 23.4538C79.3411 23.3363 79.6935 23.1601 79.9809 22.9283L79.2979 21.1943C78.9331 21.4818 78.4788 21.624 77.9317 21.624V21.6209Z" fill="white"/>
<path d="M88.3787 13.6279C87.5874 13.1859 86.6817 12.9664 85.6679 12.9664C84.6541 12.9664 83.7021 13.1951 82.8892 13.6495C82.0763 14.1039 81.4396 14.7313 80.979 15.5319C80.5185 16.3324 80.2867 17.2504 80.2867 18.289C80.2867 19.3275 80.5247 20.2331 80.9976 21.0368C81.4705 21.8435 82.1412 22.4771 83.0067 22.9377C83.869 23.3982 84.8797 23.63 86.0388 23.63C86.9476 23.63 87.7574 23.4848 88.4652 23.1911C89.173 22.8975 89.7603 22.4802 90.2301 21.9331L88.9227 20.431C88.5579 20.8204 88.1438 21.1079 87.6739 21.2902C87.2072 21.4726 86.6787 21.5622 86.0945 21.5622C85.4176 21.5622 84.821 21.4324 84.3017 21.1728C83.7825 20.9131 83.3776 20.5422 83.0932 20.0601C82.9139 19.7571 82.7965 19.4233 82.7316 19.0679H90.8916C90.9039 18.9504 90.9132 18.8268 90.9194 18.697C90.9256 18.5671 90.9287 18.4497 90.9287 18.3477C90.9287 17.2566 90.6999 16.3077 90.2456 15.501C89.7912 14.6942 89.1668 14.073 88.3756 13.631L88.3787 13.6279ZM83.0468 16.385C83.3003 15.9244 83.6527 15.5628 84.1008 15.3031C84.549 15.0435 85.0714 14.9137 85.671 14.9137C86.2707 14.9137 86.7714 15.0435 87.2196 15.3031C87.6678 15.5628 88.0232 15.9213 88.2828 16.3757C88.4652 16.6971 88.5796 17.0557 88.6259 17.4482H82.713C82.7687 17.0557 82.8768 16.7002 83.0499 16.385H83.0468Z" fill="white"/>
<path d="M99.9666 14.0482C99.1413 13.328 97.9761 12.9664 96.4677 12.9664C95.6363 12.9664 94.8326 13.0746 94.0599 13.2879C93.2872 13.5011 92.6195 13.8226 92.0632 14.2522L93.0183 16.0264C93.4077 15.7019 93.8868 15.4484 94.4524 15.266C95.0181 15.0837 95.593 14.994 96.1772 14.994C97.0488 14.994 97.6979 15.1919 98.1275 15.5875C98.5572 15.9831 98.7704 16.5395 98.7704 17.2535V17.408H96.0813C95.0273 17.408 94.1835 17.544 93.5468 17.816C92.9101 18.088 92.4526 18.459 92.1713 18.9288C91.8932 19.3955 91.751 19.921 91.751 20.5082C91.751 21.0955 91.9086 21.6426 92.2301 22.1155C92.5484 22.5915 92.9997 22.9593 93.5839 23.2251C94.1681 23.491 94.8512 23.6239 95.6301 23.6239C96.5512 23.6239 97.3177 23.457 97.9204 23.117C98.3408 22.882 98.6653 22.5791 98.9033 22.2113V23.4848H101.203V17.3833C101.203 15.875 100.792 14.7622 99.9666 14.039V14.0482ZM97.7443 21.4448C97.2683 21.7168 96.7335 21.8528 96.137 21.8528C95.5404 21.8528 95.0273 21.723 94.675 21.4633C94.3257 21.2037 94.1495 20.8544 94.1495 20.4124C94.1495 20.023 94.2917 19.6953 94.5792 19.4264C94.8666 19.1575 95.423 19.0277 96.2544 19.0277H98.7704V20.2362C98.5633 20.7679 98.2203 21.1728 97.7473 21.4448H97.7443Z" fill="white"/>
<path d="M111.419 18.9874C111.184 18.6227 110.875 18.3414 110.491 18.1405C110.108 17.9396 109.688 17.7788 109.233 17.6645C108.779 17.547 108.321 17.4605 107.858 17.4017C107.397 17.343 106.977 17.2688 106.6 17.1761C106.223 17.0865 105.917 16.9628 105.685 16.8052C105.453 16.6476 105.336 16.4157 105.336 16.1036C105.336 15.7666 105.515 15.4854 105.87 15.2659C106.229 15.0465 106.776 14.9352 107.518 14.9352C108.012 14.9352 108.51 14.9908 109.008 15.1021C109.508 15.2134 110.006 15.4174 110.497 15.7172L111.434 13.8657C110.967 13.5814 110.374 13.3588 109.66 13.2043C108.946 13.0497 108.238 12.9694 107.533 12.9694C106.597 12.9694 105.79 13.1023 105.107 13.3681C104.424 13.6339 103.895 14.011 103.518 14.4994C103.141 14.9877 102.953 15.5627 102.953 16.2241C102.953 16.8237 103.07 17.3028 103.305 17.6676C103.54 18.0323 103.843 18.3197 104.22 18.5361C104.597 18.7494 105.017 18.9132 105.478 19.0245C105.938 19.1357 106.402 19.2223 106.863 19.2872C107.323 19.3521 107.743 19.4232 108.121 19.5005C108.498 19.5777 108.804 19.6921 109.035 19.8405C109.27 19.9888 109.385 20.2083 109.385 20.4927C109.385 20.8419 109.212 21.1232 108.869 21.3303C108.525 21.5374 107.969 21.6425 107.203 21.6425C106.553 21.6425 105.901 21.5436 105.252 21.3488C104.603 21.1541 104.044 20.9068 103.577 20.607L102.64 22.4585C103.107 22.783 103.741 23.0612 104.541 23.2868C105.339 23.5156 106.176 23.6268 107.045 23.6268C108.019 23.6268 108.859 23.4939 109.561 23.2281C110.263 22.9623 110.807 22.5883 111.19 22.1092C111.573 21.6301 111.765 21.0645 111.765 20.4123C111.765 19.8281 111.647 19.3521 111.415 18.9874H111.419Z" fill="white"/>
<path d="M120.602 13.0808L117.307 20.7802L114.033 13.0808H111.499L116.049 23.5219L115.863 23.9391C115.628 24.4584 115.375 24.8293 115.103 25.0488C114.831 25.2682 114.472 25.3795 114.03 25.3795C113.706 25.3795 113.387 25.3146 113.075 25.1848C112.763 25.055 112.485 24.8788 112.238 24.6593L111.264 26.4521C111.601 26.7519 112.024 26.9837 112.531 27.1537C113.038 27.3206 113.545 27.4071 114.052 27.4071C114.636 27.4071 115.174 27.3175 115.659 27.1351C116.148 26.9528 116.587 26.6344 116.985 26.1801C117.381 25.7257 117.743 25.1075 118.067 24.3286L122.941 13.0808H120.602Z" fill="white"/>
<path d="M29.3638 13.4579L14.988 7.40898L6.81256 10.9017L6.80328 11.9341C6.80328 13.1333 6.87747 19.2472 8.87728 21.6364C9.46765 22.3535 11.8446 23.6239 23.2933 28.7084C23.9764 29.0237 24.6935 29.339 25.4507 29.6666C25.9453 29.2555 26.3873 28.8661 26.7675 28.4983C27.1044 28.1706 27.398 27.8677 27.6082 27.605C27.6917 27.5092 27.7751 27.4041 27.8617 27.2773C27.2527 27.0023 26.5882 26.7086 25.8835 26.3933C20.3909 23.9732 12.4658 20.4279 11.2449 19.5439C10.7287 18.8392 10.3826 17.2072 10.1816 15.4917L27.4382 23.1943L29.3638 24.0473C29.6266 23.2993 29.8584 22.5328 30.0469 21.723L30.0562 21.6921L30.0655 21.6612C30.118 21.4386 30.1798 21.2099 30.2324 20.9781L28.2758 20.1157L11.1646 12.475L14.9942 10.843L28.9064 16.7033L30.9062 17.5441L31.2431 15.365C31.2957 15.0188 31.3389 14.6695 31.3791 14.3141L29.3577 13.461L29.3638 13.4579Z" fill="white"/>
<path d="M6.24379 24.276C3.89779 21.4571 3.25488 12.8798 3.17142 8.70091L14.988 3.65036L29.7007 9.94345C29.7316 9.57564 29.7532 9.20782 29.7749 8.84927C29.8274 8.03945 29.8707 7.26982 29.9016 6.58673C29.9016 6.51255 29.9109 6.43836 29.9109 6.37655L14.988 0L0.0465149 6.38891C0.0465149 6.46309 0.0557876 6.53727 0.0557876 6.61145L0.00324217 6.63309V7.66545C-0.00603056 9.09655 0.0557876 21.7878 3.82361 26.3005C4.16979 26.7116 4.8127 27.2464 5.79252 27.9202C5.79252 27.9202 5.80179 27.9202 5.80179 27.9295C7.68415 29.4131 10.8307 31.4964 15.4083 34C15.5443 33.9165 15.6927 33.8331 15.8287 33.7465C16.892 33.0944 17.912 32.4515 18.8392 31.8518C18.8609 31.8302 18.8918 31.8209 18.9134 31.8085C9.13688 26.622 6.74761 24.8633 6.24379 24.2729V24.276Z" fill="white"/>
</svg>
