<svg width="26" height="26" viewBox="0 0 26 26" fill="none" xmlns="http://www.w3.org/2000/svg">
<path d="M19.4289 9.34071H18.4386C18.5393 8.93786 18.6064 8.51821 18.6064 8.09857C18.6064 5.61429 16.7432 3.6 14.4436 3.6C12.9161 3.6 11.5396 4.48964 10.8011 5.91643C10.3814 5.78214 9.96177 5.73179 9.54213 5.73179C7.3432 5.73179 5.51356 7.42714 5.39606 9.54214C3.63356 10.0961 2.4082 11.825 2.4082 13.8393C2.4082 15.3836 3.5832 16.6425 5.00999 16.6425H7.71249C7.84677 16.6425 7.96427 16.525 7.96427 16.3907C7.96427 16.2564 7.84677 16.1389 7.71249 16.1389H5.00999C3.85177 16.1389 2.91177 15.0982 2.91177 13.8393C2.91177 12.0264 4.08677 10.3982 5.6982 9.96179C5.8157 9.92821 5.88285 9.8275 5.88285 9.72679C5.89963 7.79643 7.54463 6.23536 9.54213 6.23536C9.97856 6.23536 10.415 6.31929 10.8346 6.47036C10.9521 6.52071 11.1032 6.45357 11.1536 6.33607C11.7914 4.95964 13.0336 4.10357 14.4436 4.10357C16.4578 4.10357 18.1028 5.89964 18.1028 8.09857C18.1028 8.56857 18.0189 9.03857 17.8678 9.50857C17.8343 9.5925 17.8511 9.67643 17.9014 9.74357C17.9518 9.81071 18.0189 9.84429 18.1028 9.84429H19.4289C21.4432 9.84429 23.0882 11.6404 23.0882 13.8393C23.0882 15.0982 22.1482 16.1389 20.99 16.1389H18.3546C18.2203 16.1389 18.1028 16.2564 18.1028 16.3907C18.1028 16.525 18.2203 16.6425 18.3546 16.6425H20.99C22.4168 16.6425 23.5918 15.3836 23.5918 13.8393C23.5918 11.355 21.7286 9.34071 19.4289 9.34071Z" fill="white" stroke="white" stroke-width="0.3"/>
<path d="M11.0025 10.18C10.8682 10.18 10.7507 10.2975 10.7507 10.4318C10.7507 10.5661 10.8682 10.6836 11.0025 10.6836C14.0911 10.6836 16.6089 13.2014 16.6089 16.29C16.6089 19.3786 14.0911 21.8964 11.0025 21.8964C10.8682 21.8964 10.7507 22.0139 10.7507 22.1482C10.7507 22.2825 10.8682 22.4 11.0025 22.4C14.3764 22.4 17.1125 19.6639 17.1125 16.29C17.1125 12.9161 14.3597 10.18 11.0025 10.18Z" fill="white" stroke="white" stroke-width="0.3"/>
<path d="M8.88745 16.29C8.88745 17.8175 10.18 19.0596 11.7578 19.0596C13.3357 19.0596 14.6282 17.8175 14.6282 16.29C14.6282 14.7625 13.3357 13.5371 11.7578 13.5371C10.18 13.5371 8.88745 14.7793 8.88745 16.29ZM11.7578 14.0407C13.0671 14.0407 14.1246 15.0479 14.1246 16.3068C14.1246 17.5657 13.0671 18.5729 11.7578 18.5729C10.4485 18.5729 9.39102 17.5657 9.39102 16.3068C9.39102 15.0479 10.4653 14.0407 11.7578 14.0407Z" fill="white" stroke="white" stroke-width="0.3"/>
</svg>
