<svg width="26" height="26" viewBox="0 0 26 26" fill="none" xmlns="http://www.w3.org/2000/svg">
<path d="M19.9912 13.9204C20.0304 13.6267 20.05 13.3231 20.05 13C20.05 12.6867 20.0304 12.3733 19.9814 12.0796L21.9692 10.5325C22.0548 10.4619 22.1133 10.3638 22.1348 10.2549C22.1562 10.146 22.1392 10.033 22.0867 9.93521L20.2067 6.68438C20.1513 6.58603 20.0629 6.51045 19.9572 6.47103C19.8515 6.4316 19.7352 6.43087 19.629 6.46896L17.2887 7.40896C16.7992 7.03688 16.2802 6.72354 15.7025 6.48854L15.35 4.00146C15.3327 3.88938 15.2757 3.78723 15.1895 3.71356C15.1032 3.6399 14.9934 3.59961 14.88 3.6H11.12C10.885 3.6 10.699 3.76646 10.6598 4.00146L10.3073 6.48854C9.72958 6.72354 9.20083 7.04667 8.72104 7.40896L6.38083 6.46896C6.16541 6.39063 5.92062 6.46896 5.80312 6.68438L3.93291 9.93521C3.81541 10.1408 3.85458 10.3954 4.05041 10.5325L6.03812 12.0796C5.98916 12.3733 5.95 12.6965 5.95 13C5.95 13.3035 5.96958 13.6267 6.01854 13.9204L4.03083 15.4675C3.94518 15.5381 3.88665 15.6362 3.86522 15.7451C3.8438 15.854 3.8608 15.967 3.91333 16.0648L5.79333 19.3156C5.91083 19.531 6.15562 19.5996 6.37104 19.531L8.71124 18.591C9.20083 18.9631 9.71979 19.2765 10.2975 19.5115L10.65 21.9985C10.699 22.2335 10.885 22.4 11.12 22.4H14.88C15.115 22.4 15.3108 22.2335 15.3402 21.9985L15.6927 19.5115C16.2704 19.2765 16.7992 18.9631 17.279 18.591L19.6192 19.531C19.8346 19.6094 20.0794 19.531 20.1969 19.3156L22.0769 16.0648C22.1944 15.8494 22.1454 15.6046 21.9594 15.4675L19.9912 13.9204ZM13 16.525C11.0612 16.525 9.47499 14.9388 9.47499 13C9.47499 11.0613 11.0612 9.475 13 9.475C14.9387 9.475 16.525 11.0613 16.525 13C16.525 14.9388 14.9387 16.525 13 16.525Z" fill="white"/>
</svg>
