<svg width="16" height="16" viewBox="0 0 16 16" fill="none" xmlns="http://www.w3.org/2000/svg">
<path d="M15.0314 11.2803C14.9071 11.2803 14.7879 11.3297 14.7 11.4176C14.6121 11.5056 14.5627 11.6248 14.5627 11.7491V13.7975C14.5682 13.8673 14.5471 13.9365 14.5036 13.9913C14.4601 14.0461 14.3975 14.0824 14.3283 14.0928H1.67204C1.60199 14.0824 1.53863 14.0454 1.49502 13.9896C1.45141 13.9338 1.43088 13.8634 1.43766 13.7929V11.7491C1.43766 11.6248 1.38828 11.5056 1.30037 11.4176C1.21246 11.3297 1.09323 11.2803 0.968915 11.2803C0.844594 11.2803 0.725366 11.3297 0.637458 11.4176C0.549551 11.5056 0.500165 11.6248 0.500165 11.7491V13.7975C0.493226 14.1161 0.612532 14.4245 0.832062 14.6554C1.05159 14.8864 1.35354 15.0211 1.67204 15.0303H14.3283C14.6476 15.0212 14.9503 14.8857 15.17 14.6538C15.3896 14.4218 15.5084 14.1122 15.5002 13.7929V11.7491C15.5002 11.6248 15.4508 11.5056 15.3629 11.4176C15.275 11.3297 15.1557 11.2803 15.0314 11.2803Z" fill="#03258C"/>
<path d="M7.156 12.2507C7.25364 12.3813 7.38127 12.4865 7.52811 12.5575C7.67496 12.6285 7.83672 12.6631 7.99975 12.6585C8.16278 12.6631 8.32454 12.6285 8.47138 12.5575C8.61823 12.4865 8.74586 12.3813 8.8435 12.2507L13.3201 7.6241C13.3998 7.53371 13.4417 7.41607 13.4369 7.29562C13.4322 7.17517 13.3813 7.06117 13.2947 6.97731C13.2081 6.89344 13.0925 6.84615 12.972 6.84526C12.8515 6.84437 12.7352 6.88996 12.6474 6.97254L8.4685 11.2804V0.4991C8.4685 0.37478 8.41911 0.255551 8.3312 0.167643C8.2433 0.0797358 8.12407 0.0303497 7.99975 0.0303497C7.87543 0.0303497 7.7562 0.0797358 7.66829 0.167643C7.58038 0.255551 7.531 0.37478 7.531 0.4991V11.2804L3.35444 6.97254C3.31165 6.92822 3.26056 6.89276 3.20407 6.86818C3.14759 6.84361 3.08681 6.8304 3.02522 6.82931C2.96363 6.82822 2.90243 6.83927 2.84511 6.86184C2.78779 6.8844 2.73548 6.91804 2.69115 6.96082C2.60164 7.04722 2.55012 7.16564 2.54792 7.29003C2.54684 7.35162 2.55789 7.41283 2.58046 7.47015C2.60302 7.52747 2.63665 7.57978 2.67944 7.6241L7.156 12.2507Z" fill="#03258C"/>
</svg>
