<svg width="26" height="27" viewBox="0 0 26 27" fill="none" xmlns="http://www.w3.org/2000/svg">
<path d="M20.5876 7.7646L20.5819 7.78857L20.5974 7.80773C21.3382 8.7231 21.7444 9.86387 21.7488 11.0414C21.7488 13.361 21.0177 14.8259 20.0556 15.7615C19.0919 16.6986 17.8912 17.11 16.9437 17.3116L16.8858 17.3239L16.9076 17.3789C17.1132 17.8973 17.2152 18.4509 17.2079 19.0085V19.0092V22.2174C17.2079 22.3922 17.1385 22.5598 17.0149 22.6833C16.8913 22.8069 16.7237 22.8763 16.549 22.8763C16.3742 22.8763 16.2066 22.8069 16.0831 22.6833C15.9595 22.5598 15.8901 22.3922 15.8901 22.2174V19.0092C15.8901 18.1057 15.596 17.5526 15.3275 17.349L15.3269 17.3486C15.2209 17.2705 15.1409 17.1622 15.0974 17.0378C15.0539 16.9135 15.0489 16.779 15.083 16.6517C15.1171 16.5245 15.1889 16.4106 15.2888 16.3247C15.3887 16.2389 15.5122 16.1852 15.6431 16.1706L15.6435 16.1706C16.8224 16.0286 18.0235 15.7498 18.9298 15.0004C19.8388 14.2488 20.4432 13.0309 20.4432 11.0291L20.4432 11.0283C20.4281 10.0352 20.0436 9.08339 19.3649 8.35838C19.2894 8.27257 19.2379 8.16841 19.2155 8.05637C19.1931 7.94414 19.2006 7.82797 19.2374 7.71958C19.4815 7.01019 19.5002 6.24263 19.2908 5.52222L19.2773 5.47573L19.2304 5.48774C18.3929 5.70227 17.6073 6.08381 16.921 6.60943C16.8368 6.66516 16.7411 6.70119 16.6411 6.71483C16.5406 6.72854 16.4382 6.71927 16.3417 6.6877L16.3417 6.68769L16.3408 6.68739C15.4374 6.41195 14.4955 6.284 13.5514 6.30848C12.6059 6.28406 11.6627 6.412 10.758 6.68739L10.758 6.68738L10.7571 6.68766C10.6606 6.71896 10.5582 6.7281 10.4577 6.71438C10.3577 6.70075 10.262 6.66487 10.1777 6.6094C9.4649 6.06271 8.64197 5.67715 7.76568 5.4793L7.72011 5.46902L7.70676 5.51378C7.49413 6.22648 7.50991 6.98786 7.7519 7.69113C7.79229 7.8111 7.79957 7.93974 7.77295 8.0635C7.7464 8.18696 7.68711 8.30099 7.60131 8.39363C7.25343 8.7365 6.98042 9.14778 6.7995 9.60149C6.61854 10.0553 6.53366 10.5417 6.55019 11.0299C6.55035 13.0344 7.1248 14.2514 8.01926 15.0017C8.91115 15.7499 10.1128 16.0266 11.3501 16.1706L11.3504 16.1707C11.475 16.1843 11.593 16.2333 11.6905 16.312C11.788 16.3907 11.8609 16.4957 11.9005 16.6145C11.9401 16.7334 11.9448 16.8611 11.914 16.9826C11.8832 17.104 11.8182 17.2141 11.7268 17.2997L11.7267 17.2996L11.724 17.3024C11.4361 17.617 11.252 18.0127 11.1969 18.4356L11.1965 18.4356V18.4421V22.2215C11.1965 22.3962 11.1271 22.5638 11.0035 22.6874C10.8799 22.811 10.7123 22.8804 10.5376 22.8804C10.3628 22.8804 10.1952 22.811 10.0717 22.6874C9.94811 22.5638 9.87869 22.3962 9.87869 22.2215V21.0548V21.0016L9.82552 21.0049C7.29777 21.1654 6.15947 19.727 5.88237 18.8284L5.88337 18.8281L5.87842 18.819C5.62164 18.3512 5.20307 17.9931 4.70115 17.8117L4.70001 17.8113C4.53424 17.7559 4.39729 17.6369 4.31926 17.4805C4.24124 17.3241 4.22854 17.1431 4.28396 16.9774C4.33938 16.8116 4.45838 16.6746 4.61478 16.5966C4.77106 16.5186 4.95188 16.5059 5.11753 16.5612C5.98977 16.8693 6.70647 17.507 7.11384 18.3375C7.12685 18.3673 7.13823 18.3977 7.14795 18.4287L7.14796 18.4287C7.17208 18.5055 7.30203 18.8639 7.69973 19.1805C8.09851 19.4979 8.76081 19.7688 9.84094 19.6788L9.88679 19.675V19.629V18.3894H9.88718L9.8864 18.3832C9.8827 18.3538 9.88268 18.3241 9.88636 18.2947C9.92928 17.9833 10.0112 17.6785 10.1302 17.3875L10.153 17.3316L10.0939 17.3196C8.92396 17.0816 7.70667 16.6268 6.78181 15.6789C5.85805 14.7322 5.22025 13.2874 5.22026 11.0574L5.22024 11.0564C5.19489 9.86784 5.60248 8.71063 6.36707 7.80033L6.38322 7.7811L6.37744 7.75666C6.13021 6.71175 6.21148 5.61601 6.61016 4.619L6.6102 4.61889C6.64606 4.52858 6.70145 4.44731 6.7724 4.38091C6.84319 4.31467 6.92772 4.26487 7.01997 4.23505C7.23969 4.17084 8.39133 3.93295 10.6239 5.37563L10.6424 5.38761L10.6638 5.38198C11.6014 5.13465 12.5688 5.01798 13.5383 5.03529L13.5401 5.03526C14.5084 5.0182 15.4743 5.13487 16.4107 5.38198L16.432 5.38763L16.4506 5.37559C18.6307 3.96259 19.6879 4.15221 19.9517 4.24266L19.9531 4.24312C20.045 4.27161 20.1294 4.32012 20.2003 4.38517C20.2712 4.45017 20.3267 4.53007 20.363 4.61911C20.7606 5.61931 20.8391 6.71804 20.5876 7.7646Z" fill="black" stroke="white" stroke-width="0.1"/>
</svg>
