<svg width="25" height="26" viewBox="0 0 25 26" fill="none" xmlns="http://www.w3.org/2000/svg">
<path opacity="0.1" d="M0 4.46967C0 2.26053 1.79086 0.469666 4 0.469666H21C23.2091 0.469666 25 2.26053 25 4.46967V21.4697C25 23.6788 23.2091 25.4697 21 25.4697H4C1.79086 25.4697 0 23.6788 0 21.4697V4.46967Z" fill="#03258C"/>
<path fill-rule="evenodd" clip-rule="evenodd" d="M6.39087 6.33505C6.39087 5.59457 6.9785 4.96967 7.73225 4.96967H11.3782C13.3006 4.96967 15.1413 5.75526 16.4963 7.14884C17.8507 8.54195 18.6092 10.4285 18.6092 12.3927V19.6043C18.6092 20.3448 18.0216 20.9697 17.2679 20.9697H7.73225C6.9785 20.9697 6.39087 20.3448 6.39087 19.6043V6.33505ZM17.6092 12.6812C17.6092 12.1208 17.3927 11.5861 17.0115 11.194C16.6307 10.8024 16.1173 10.5851 15.5851 10.5851H14.4633C14.1029 10.5851 13.7602 10.4377 13.5098 10.1801C13.2599 9.92306 13.1219 9.57732 13.1219 9.21967V8.06582C13.1219 7.50542 12.9053 6.9707 12.5241 6.57861C12.1434 6.18699 11.63 5.96967 11.0978 5.96967H7.73225C7.55712 5.96967 7.39087 6.12015 7.39087 6.33505V19.6043C7.39087 19.8192 7.55711 19.9697 7.73225 19.9697H17.2679C17.443 19.9697 17.6092 19.8192 17.6092 19.6043V12.6812ZM13.6557 6.41411C13.9584 6.90553 14.1219 7.47771 14.1219 8.06582V9.21967C14.1219 9.32104 14.1612 9.41553 14.2268 9.48304C14.292 9.55007 14.3773 9.58505 14.4633 9.58505H15.5851C16.1545 9.58505 16.706 9.74935 17.1803 10.0508C16.8689 9.23123 16.3947 8.47888 15.7793 7.84593C15.1678 7.21705 14.4434 6.73295 13.6557 6.41411Z" fill="#03258C"/>
<mask id="path-3-outside-1_140_5" maskUnits="userSpaceOnUse" x="9.37964" y="10.225" width="14" height="9" fill="black">
<rect fill="white" x="9.37964" y="10.225" width="14" height="9"/>
<path fill-rule="evenodd" clip-rule="evenodd" d="M11.5453 14.583C11.4398 14.6779 11.3796 14.813 11.3796 14.9548C11.3796 15.0966 11.4398 15.2317 11.5453 15.3265L14.0244 17.5563C14.2297 17.741 14.5459 17.7242 14.7305 17.5189C14.9152 17.3136 14.8984 16.9975 14.6931 16.8128L13.1833 15.4548H21.0756C21.3517 15.4548 21.5756 15.2309 21.5756 14.9548C21.5756 14.6786 21.3517 14.4548 21.0756 14.4548H13.1832L14.6931 13.0968C14.8984 12.9121 14.9152 12.596 14.7305 12.3907C14.5459 12.1853 14.2297 12.1686 14.0244 12.3533L11.5453 14.583Z"/>
</mask>
<path fill-rule="evenodd" clip-rule="evenodd" d="M11.5453 14.583C11.4398 14.6779 11.3796 14.813 11.3796 14.9548C11.3796 15.0966 11.4398 15.2317 11.5453 15.3265L14.0244 17.5563C14.2297 17.741 14.5459 17.7242 14.7305 17.5189C14.9152 17.3136 14.8984 16.9975 14.6931 16.8128L13.1833 15.4548H21.0756C21.3517 15.4548 21.5756 15.2309 21.5756 14.9548C21.5756 14.6786 21.3517 14.4548 21.0756 14.4548H13.1832L14.6931 13.0968C14.8984 12.9121 14.9152 12.596 14.7305 12.3907C14.5459 12.1853 14.2297 12.1686 14.0244 12.3533L11.5453 14.583Z" fill="#03258C"/>
<path d="M11.5453 14.583L12.5484 15.6983H12.5484L11.5453 14.583ZM11.5453 15.3265L12.5484 14.2113L12.5484 14.2113L11.5453 15.3265ZM14.0244 17.5563L15.0275 16.441L15.0275 16.441L14.0244 17.5563ZM14.7305 17.5189L15.8458 18.522L15.8458 18.522L14.7305 17.5189ZM14.6931 16.8128L15.6962 15.6975L15.6962 15.6975L14.6931 16.8128ZM13.1833 15.4548V13.9548C12.5621 13.9548 12.0052 14.3377 11.7827 14.9176C11.5603 15.4976 11.7183 16.1547 12.1802 16.5701L13.1833 15.4548ZM13.1832 14.4548L12.1802 13.3395C11.7183 13.7549 11.5603 14.412 11.7827 14.992C12.0052 15.5719 12.5621 15.9548 13.1832 15.9548V14.4548ZM14.6931 13.0968L13.69 11.9815L13.69 11.9815L14.6931 13.0968ZM14.7305 12.3907L15.8458 11.3876L14.7305 12.3907ZM14.0244 12.3533L15.0275 13.4685L15.0275 13.4685L14.0244 12.3533ZM12.8796 14.9548C12.8796 15.2384 12.7592 15.5086 12.5484 15.6983L10.5422 13.4678C10.1205 13.8471 9.87964 14.3876 9.87964 14.9548H12.8796ZM12.5484 14.2113C12.7592 14.4009 12.8796 14.6712 12.8796 14.9548H9.87964C9.87964 15.522 10.1205 16.0625 10.5422 16.4418L12.5484 14.2113ZM15.0275 16.441L12.5484 14.2113L10.5422 16.4418L13.0213 18.6716L15.0275 16.441ZM13.6153 16.5158C13.9846 16.1052 14.6169 16.0717 15.0275 16.441L13.0213 18.6716C13.8426 19.4102 15.1071 19.3433 15.8458 18.522L13.6153 16.5158ZM13.69 17.9281C13.2794 17.5587 13.2459 16.9265 13.6153 16.5158L15.8458 18.522C16.5844 17.7007 16.5175 16.4362 15.6962 15.6975L13.69 17.9281ZM12.1802 16.5701L13.69 17.9281L15.6962 15.6975L14.1863 14.3395L12.1802 16.5701ZM21.0756 13.9548H13.1833V16.9548H21.0756V13.9548ZM20.0756 14.9548C20.0756 14.4025 20.5233 13.9548 21.0756 13.9548V16.9548C22.1801 16.9548 23.0756 16.0594 23.0756 14.9548H20.0756ZM21.0756 15.9548C20.5233 15.9548 20.0756 15.5071 20.0756 14.9548H23.0756C23.0756 13.8502 22.1801 12.9548 21.0756 12.9548V15.9548ZM13.1832 15.9548H21.0756V12.9548H13.1832V15.9548ZM13.69 11.9815L12.1802 13.3395L14.1863 15.5701L15.6962 14.212L13.69 11.9815ZM13.6153 13.3938C13.2459 12.9831 13.2794 12.3508 13.69 11.9815L15.6962 14.212C16.5175 13.4734 16.5844 12.2088 15.8458 11.3876L13.6153 13.3938ZM15.0275 13.4685C14.6169 13.8379 13.9846 13.8044 13.6153 13.3938L15.8458 11.3876C15.1071 10.5663 13.8426 10.4994 13.0213 11.238L15.0275 13.4685ZM12.5484 15.6983L15.0275 13.4685L13.0213 11.238L10.5422 13.4678L12.5484 15.6983Z" fill="#E6EAF4" mask="url(#path-3-outside-1_140_5)"/>
</svg>
