<svg width="26" height="26" viewBox="0 0 26 26" fill="none" xmlns="http://www.w3.org/2000/svg">
<rect opacity="0.1" x="0.5" y="0.5" width="25" height="25" rx="4" fill="#03258C"/>
<path d="M18.2268 13.3234H7.77362C7.59574 13.3234 7.4502 13.1779 7.4502 13C7.4502 12.8221 7.59574 12.6766 7.77362 12.6766H18.2268C18.4047 12.6766 18.5502 12.8221 18.5502 13C18.5502 13.1779 18.4047 13.3234 18.2268 13.3234Z" stroke="#03258C" stroke-width="1.8" stroke-linejoin="round"/>
<path d="M13.0002 18.55C12.8223 18.55 12.6768 18.4044 12.6768 18.2266V7.77341C12.6768 7.59553 12.8223 7.44998 13.0002 7.44998C13.1781 7.44998 13.3236 7.59553 13.3236 7.77341V18.2266C13.3236 18.4044 13.1781 18.55 13.0002 18.55Z" stroke="#03258C" stroke-width="1.8" stroke-linejoin="round"/>
</svg>
