<svg width="24" height="24" viewBox="0 0 24 24" fill="none" xmlns="http://www.w3.org/2000/svg">
<path fill-rule="evenodd" clip-rule="evenodd" d="M9.35069 2.92544C9.38757 2.68086 9.59775 2.5 9.84509 2.5H14.172C14.4206 2.5 14.6313 2.68252 14.6669 2.92849L15.0198 5.37061C15.4973 5.54791 15.8339 5.74427 16.2313 6.07192L18.5341 5.16835C18.7643 5.078 19.0261 5.16959 19.1497 5.3838L21.3132 9.13106C21.4375 9.34628 21.3848 9.6201 21.1896 9.77387L19.2207 11.3245C19.2571 11.8609 19.2565 12.2268 19.223 12.6793L21.1834 14.2429C21.3768 14.3972 21.4283 14.6696 21.3046 14.8838L19.1412 18.6311C19.0169 18.8463 18.7534 18.9376 18.5226 18.8454L16.2144 17.9233C15.8082 18.2288 15.4771 18.4155 15.0207 18.6108L14.6492 21.0746C14.6123 21.3192 14.4021 21.5 14.1548 21.5H9.82783C9.57931 21.5 9.36851 21.3175 9.33297 21.0715L8.97607 18.6019C8.50473 18.3879 8.1803 18.2019 7.79026 17.9196L5.46693 18.8312L5.46585 18.8316C5.2356 18.922 4.97381 18.8304 4.85013 18.6162L2.68665 14.869C2.56239 14.6537 2.61506 14.3799 2.8103 14.2262L4.76931 12.6833C4.71306 12.1422 4.70977 11.7645 4.76343 11.31L2.81646 9.7571C2.62309 9.60287 2.57155 9.33042 2.69522 9.11621L4.85871 5.36894C4.98297 5.15372 5.24644 5.06243 5.47722 5.15463L7.79211 6.07943C8.24574 5.74947 8.57056 5.56353 8.97929 5.3882L9.35069 2.92544ZM5.50103 17.7436L7.68362 16.8872C7.8465 16.8233 8.03093 16.8492 8.16993 16.9554C8.67234 17.3395 8.97875 17.5172 9.62888 17.7969C9.78869 17.8656 9.90128 18.0125 9.92616 18.1847L10.2608 20.5H13.7245L14.0741 18.1816C14.1006 18.0058 14.2185 17.8573 14.3837 17.7916C14.9976 17.5473 15.3028 17.3781 15.8208 16.9625C15.9614 16.8498 16.1518 16.8214 16.3192 16.8882L18.4916 17.7561L20.2235 14.7564L18.3905 13.2944C18.2588 13.1894 18.1888 13.025 18.2044 12.8573C18.2606 12.2528 18.2647 11.8901 18.2039 11.1366C18.1904 10.9697 18.2613 10.8072 18.3929 10.7036L20.2307 9.25613L18.4988 6.25641L16.3162 7.11281C16.1408 7.18167 15.9415 7.14598 15.8008 7.02049C15.307 6.58004 15.0259 6.41649 14.4152 6.21973C14.2335 6.16118 14.101 6.00428 14.0737 5.81534L13.7391 3.5H10.2753L9.92572 5.81838C9.89903 5.9954 9.77973 6.14463 9.61295 6.20966C9.08916 6.41389 8.78959 6.57467 8.16834 7.04584C8.02861 7.15182 7.84357 7.17684 7.6807 7.11177L5.50827 6.24388L3.77638 9.2436L5.60934 10.7056C5.74963 10.8175 5.81919 10.9959 5.79163 11.1733C5.70345 11.7405 5.70159 12.0881 5.79392 12.8429C5.81513 13.0164 5.74426 13.1883 5.60698 13.2964L3.76914 14.7439L5.50103 17.7436ZM12.0099 9.07099C10.3923 9.07099 9.08093 10.3824 9.08093 12C9.08093 13.6177 10.3923 14.929 12.0099 14.929C13.6276 14.929 14.9389 13.6177 14.9389 12C14.9389 10.3824 13.6276 9.07099 12.0099 9.07099ZM8.08093 12C8.08093 9.83007 9.84001 8.07099 12.0099 8.07099C14.1798 8.07099 15.9389 9.83007 15.9389 12C15.9389 14.1699 14.1798 15.929 12.0099 15.929C9.84001 15.929 8.08093 14.1699 8.08093 12Z" fill="white"/>
</svg>
