<svg width="33" height="33" viewBox="0 0 33 33" fill="none" xmlns="http://www.w3.org/2000/svg">
<path d="M8.63906 19.4242H23.3663M8.63906 19.4242C7.77108 19.4242 6.93865 19.0794 6.32489 18.4657C5.71114 17.8519 5.36633 17.0195 5.36633 16.1515M8.63906 19.4242C7.77108 19.4242 6.93865 19.769 6.32489 20.3828C5.71114 20.9965 5.36633 21.829 5.36633 22.6969C5.36633 23.5649 5.71114 24.3974 6.32489 25.0111C6.93865 25.6249 7.77108 25.9697 8.63906 25.9697H23.3663C24.2343 25.9697 25.0667 25.6249 25.6805 25.0111C26.2943 24.3974 26.6391 23.5649 26.6391 22.6969C26.6391 21.829 26.2943 20.9965 25.6805 20.3828C25.0667 19.769 24.2343 19.4242 23.3663 19.4242M23.3663 19.4242C24.2343 19.4242 25.0667 19.0794 25.6805 18.4657C26.2943 17.8519 26.6391 17.0195 26.6391 16.1515M5.36633 16.1515C5.36633 15.2835 5.71114 14.4511 6.32489 13.8373C6.93865 13.2236 7.77108 12.8788 8.63906 12.8788H23.3663C24.2343 12.8788 25.0667 13.2236 25.6805 13.8373C26.2943 14.4511 26.6391 15.2835 26.6391 16.1515M5.36633 16.1515C5.36633 15.0893 5.71084 14.0558 6.34815 13.206L9.17033 9.44239C9.51328 8.98513 9.95799 8.61399 10.4692 8.35837C10.9805 8.10275 11.5442 7.96967 12.1158 7.96967H19.8896C21.0481 7.96967 22.1391 8.51512 22.8351 9.44239L25.6572 13.206C26.2945 14.0558 26.6391 15.0893 26.6391 16.1515M23.3663 22.6969H23.3751V22.7057H23.3663V22.6969ZM23.3663 16.1515H23.3751V16.1602H23.3663V16.1515ZM20.0936 22.6969H20.1023V22.7057H20.0936V22.6969ZM20.0936 16.1515H20.1023V16.1602H20.0936V16.1515Z" stroke="#03258C" stroke-linecap="round" stroke-linejoin="round"/>
</svg>
