<svg width="16" height="16" viewBox="0 0 16 16" fill="none" xmlns="http://www.w3.org/2000/svg">
<path d="M2.7976 2.75035C2.6117 2.74998 2.42757 2.78644 2.25584 2.85762C2.08416 2.92878 1.92828 3.03324 1.79718 3.16496C1.5756 3.38454 1.43434 3.67173 1.39521 3.98035H0.553597C0.598743 3.426 0.847988 2.90733 1.2541 2.52547C1.67309 2.1315 2.22718 1.91314 2.80231 1.91535H2.8025H4.2225H4.26319L4.27146 1.8755C4.37648 1.36905 4.65259 0.91416 5.05342 0.587262C5.45425 0.260363 5.95537 0.0813697 6.4726 0.0803496L8.92243 0.0803497C9.43952 0.0818413 9.9404 0.261004 10.3411 0.587819C10.7419 0.91465 11.0181 1.36929 11.1235 1.87554L11.1318 1.91535H11.1725L13.1975 1.91535L13.1977 1.91535L2.7975 2.80035M2.7976 2.75035L2.7975 2.80035M2.7976 2.75035H2.7975V2.80035M2.7976 2.75035H13.1974M2.7975 2.80035H13.1975M13.1974 2.75035L13.1975 2.80035M13.1974 2.75035C13.3833 2.74998 13.5674 2.78644 13.7392 2.85762C13.9108 2.92878 14.0667 3.03323 14.1978 3.16495M13.1974 2.75035H13.1975V2.80035M13.1975 2.80035L14.1978 3.16495M14.1978 3.16495C14.1979 3.16499 14.1979 3.16504 14.1979 3.16508L14.1625 3.20035L14.1977 3.16483C14.1977 3.16487 14.1978 3.16491 14.1978 3.16495ZM5.12584 1.91539L5.15057 1.8481C5.2217 1.65456 5.33282 1.47818 5.47668 1.33046L5.47714 1.33C5.6088 1.19829 5.76517 1.09385 5.93727 1.0227C6.10937 0.951549 6.29381 0.915069 6.48004 0.91535H6.48V0.96535L6.48008 0.91535L5.12584 1.91539ZM5.12584 1.91539L5.19752 1.91535L10.205 1.91285L10.2761 1.91281L10.252 1.84591C10.1537 1.57292 9.97344 1.33699 9.73586 1.17041C9.49831 1.00385 9.21508 0.914761 8.92495 0.91535L5.12584 1.91539ZM15.4499 4.03035H15.5C15.499 4.01365 15.4979 3.99699 15.4966 3.98035H15.4464C15.4478 3.99698 15.4489 4.01365 15.4499 4.03035ZM14.6048 4.02569C14.6034 4.01053 14.6017 3.99541 14.5998 3.98035H14.555V4.03035L14.6048 4.02569ZM0.5 4.03035H0.550085L0.503435 3.98035C0.50211 3.99699 0.500964 4.01365 0.5 4.03035ZM4.2225 1.86535H2.8025L6.4725 0.0303497C5.94379 0.0313924 5.43155 0.214359 5.02182 0.548514C4.61209 0.882668 4.32985 1.34765 4.2225 1.86535Z" fill="#FF0000" stroke="white" stroke-width="0.1"/>
<path d="M2.33487 14.5553V4.10534V14.5553ZM2.33487 14.5553C2.33421 14.6173 2.34579 14.6787 2.36896 14.7362C2.39213 14.7936 2.42642 14.8459 2.46986 14.89C2.51331 14.9342 2.56505 14.9693 2.62211 14.9934C2.67917 15.0175 2.74043 15.03 2.80237 15.0303L2.33487 14.5553ZM12.7274 14.1428H12.7774V14.0928V4.11034H13.6149V14.5603C13.6149 14.6713 13.5709 14.7778 13.4926 14.8565C13.4144 14.9352 13.3082 14.9797 13.1973 14.9803C13.1972 14.9803 13.1972 14.9803 13.1971 14.9803H2.80263C2.80257 14.9803 2.80251 14.9803 2.80245 14.9803C2.74717 14.98 2.69249 14.9688 2.64155 14.9473C2.59056 14.9258 2.54432 14.8944 2.5055 14.855C2.46668 14.8155 2.43603 14.7688 2.41533 14.7175C2.39463 14.6661 2.38427 14.6112 2.38486 14.5559L2.38487 14.5559V14.5553V4.10534H3.22237V14.0928V14.1428H3.27237H12.7274Z" fill="#FF0000" stroke="white" stroke-width="0.1"/>
<path d="M4.77485 12.6778V5.44035H5.61235V12.6778H4.77485Z" fill="#FF0000" stroke="white" stroke-width="0.1"/>
<path d="M7.58247 12.6778V5.44035H8.41997V12.6778H7.58247Z" fill="#FF0000" stroke="white" stroke-width="0.1"/>
<path d="M10.3874 12.6778V5.44035H11.2249V12.6778H10.3874Z" fill="#FF0000" stroke="white" stroke-width="0.1"/>
</svg>
