<svg width="17" height="17" viewBox="0 0 17 17" fill="none" xmlns="http://www.w3.org/2000/svg">
<path d="M3 5V15C3 15.5523 3.44771 16 4 16H13C13.5523 16 14 15.5523 14 15V5" stroke="#FF0000" stroke-width="0.75"/>
<path d="M16 5V5C16 3.89543 15.1046 3 14 3L3 3C1.89543 3 1 3.89543 1 5V5" stroke="#FF0000" stroke-width="0.75"/>
<path d="M11 3L11 2C11 1.44771 10.5523 0.999999 10 1L7 1C6.44771 1 6 1.44772 6 2L6 3" stroke="#FF0000" stroke-width="0.75"/>
<line x1="5.375" y1="6" x2="5.375" y2="14" stroke="#FF0000" stroke-width="0.75"/>
<line x1="8.375" y1="6" x2="8.375" y2="14" stroke="#FF0000" stroke-width="0.75"/>
<line x1="11.375" y1="6" x2="11.375" y2="14" stroke="#FF0000" stroke-width="0.75"/>
</svg>
