<svg width="26" height="27" viewBox="0 0 26 27" fill="none" xmlns="http://www.w3.org/2000/svg">
<path d="M12.9995 4.18037C18.1598 4.18037 22.3495 8.37006 22.3495 13.5304C22.3495 18.6907 18.1598 22.8804 12.9995 22.8804C7.83918 22.8804 3.64949 18.6907 3.64949 13.5304C3.64949 8.37006 7.83918 4.18037 12.9995 4.18037ZM12.9995 5.392C8.50797 5.392 4.86112 9.03885 4.86112 13.5304C4.86112 18.0219 8.50797 21.6687 12.9995 21.6687C17.491 21.6687 21.1379 18.0219 21.1379 13.5304C21.1379 9.03885 17.491 5.392 12.9995 5.392Z" fill="#FF0000" stroke="white" stroke-width="0.1"/>
<path d="M13.824 17.5746C13.824 18.0299 13.4549 18.399 12.9995 18.399C12.5442 18.399 12.1751 18.0299 12.1751 17.5746C12.1751 17.1192 12.5442 16.7501 12.9995 16.7501C13.4549 16.7501 13.824 17.1192 13.824 17.5746Z" fill="#FF0000" stroke="white" stroke-width="0.1"/>
<path d="M12.3937 14.9513H12.3939L12.3935 14.9471L11.9565 9.70273C11.9569 9.52974 12.0098 9.26856 12.1657 9.0517C12.3204 8.83655 12.5787 8.66176 12.9995 8.66176C13.4204 8.66176 13.6786 8.83655 13.8333 9.0517C13.9893 9.26856 14.0421 9.52974 14.0425 9.70273L13.6055 14.9471L13.6053 14.9471V14.9513C13.6053 15.2857 13.3339 15.5571 12.9995 15.5571C12.6651 15.5571 12.3937 15.2857 12.3937 14.9513Z" fill="#FF0000" stroke="white" stroke-width="0.1"/>
</svg>
